<?xml version="1.0"?>
<svg xmlns="http://www.w3.org/2000/svg" viewBox="0 0 32 32">
    <path d="M 16 5 C 12.774 5 9.97175 7.25675 9.21875 10.34375 C 7.97175 10.82575 6.93825 11.81325 6.40625 13.03125 C 2.89725 12.74525 0 15.553 0 19 C 0 21.967 2.167 24.42725 5 24.90625 L 5 22.84375 C 3.28 22.39675 2 20.859 2 19 C 2 16.794 3.794 15 6 15 C 6.275 15 6.557 15.02275 6.875 15.09375 L 7.875 15.3125 L 8.0625 14.34375 C 8.3085 13.23775 9.2055 12.35875 10.3125 12.09375 L 10.96875 11.9375 L 11.0625 11.28125 C 11.4215 8.84925 13.543 7 16 7 C 17.894 7 19.61175 8.053 20.46875 9.75 L 20.84375 10.53125 L 21.6875 10.25 C 22.1545 10.087 22.582 10 23 10 C 25.206 10 27 11.794 27 14 C 27 14.038 27.005 14.088 27 14.125 C 26.991 14.193 26.97475 14.2435 26.96875 14.3125 L 26.90625 15.03125 L 27.5625 15.3125 C 29.0395 15.9425 30 17.395 30 19 C 30 20.859 28.72 22.39675 27 22.84375 L 27 24.90625 C 29.833 24.42825 32 21.968 32 19 C 32 16.834 30.845 14.8745 29 13.8125 C 28.895 10.5955 26.242 8 23 8 C 22.611 8 22.2085 8.04 21.8125 8.125 C 20.5225 6.178 18.372 5 16 5 z M 11 17 L 11 19 L 13 19 L 13 17 L 11 17 z M 19 17 L 19 19 L 21 19 L 21 17 L 19 17 z M 15 18 L 15 21 L 17 21 L 17 18 L 15 18 z M 7 19 L 7 21 L 9 21 L 9 19 L 7 19 z M 23 19 L 23 21 L 25 21 L 25 19 L 23 19 z M 11 20 L 11 23 L 13 23 L 13 20 L 11 20 z M 19 20 L 19 23 L 21 23 L 21 20 L 19 20 z M 7 22 L 7 25 L 9 25 L 9 22 L 7 22 z M 15 22 L 15 25 L 17 25 L 17 22 L 15 22 z M 23 22 L 23 25 L 25 25 L 25 22 L 23 22 z M 11 24 L 11 28 L 13 28 L 13 24 L 11 24 z M 19 24 L 19 28 L 21 28 L 21 24 L 19 24 z M 7 26 L 7 28 L 9 28 L 9 26 L 7 26 z M 15 26 L 15 28 L 17 28 L 17 26 L 15 26 z M 23 26 L 23 28 L 25 28 L 25 26 L 23 26 z"/>
</svg>
