<?xml version="1.0"?>
<svg xmlns="http://www.w3.org/2000/svg" viewBox="0 0 32 32">
    <path d="M 16 4 C 12.774 4 9.97175 6.25675 9.21875 9.34375 C 7.97175 9.82675 6.93725 10.81425 6.40625 12.03125 C 2.90925 11.77225 0 14.553 0 18 C 0 21.309 2.691 24 6 24 L 12 24 L 13 22 L 6 22 C 3.794 22 2 20.206 2 18 C 2 15.794 3.794 14 6 14 C 6.277 14 6.559 14.02275 6.875 14.09375 L 7.875 14.3125 L 8.0625 13.34375 C 8.3085 12.23775 9.2055 11.35775 10.3125 11.09375 L 10.96875 10.9375 L 11.0625 10.28125 C 11.4215 7.84825 13.543 6 16 6 C 17.894 6 19.61175 7.053 20.46875 8.75 L 20.84375 9.53125 L 21.6875 9.25 C 22.1545 9.086 22.582 9 23 9 C 25.206 9 27 10.794 27 13 C 27 13.038 27.005 13.088 27 13.125 C 26.991 13.193 26.97475 13.2425 26.96875 13.3125 L 26.90625 14.03125 L 27.5625 14.3125 C 29.0395 14.9425 30 16.395 30 18 C 30 20.206 28.206 22 26 22 L 21 22 L 22 24 L 26 24 C 29.309 24 32 21.309 32 18 C 32 15.835 30.845 13.8755 29 12.8125 C 28.895 9.5955 26.242 7 23 7 C 22.611 7 22.2085 7.04 21.8125 7.125 C 20.5225 5.178 18.372 4 16 4 z M 17 21 C 17 21 15 23.895 15 25 C 15 26.105 15.895 27 17 27 C 18.105 27 19 26.105 19 25 C 19 23.895 17 21 17 21 z"/>
</svg>
